<svg xmlns="http://www.w3.org/2000/svg" width="1750" height="1200" viewBox="0 0 1750 1200">
<rect width="100%" height="100%" fill="white"/>
<style>text { font-family: Arial, Helvetica, sans-serif; } .axis { font-size: 32px; } .network { font-size: 30px; } .label { font-size: 26px; } .value { font-size: 32px; font-weight: 500; } .tick { font-size: 32px; }</style>
<text x="352.5" y="84" text-anchor="middle" class="network">Asia</text>
<text x="517.5" y="84" text-anchor="middle" class="network">Insurance</text>
<text x="682.5" y="84" text-anchor="middle" class="network">Water</text>
<text x="847.5" y="84" text-anchor="middle" class="network">Alarm</text>
<text x="1012.5" y="84" text-anchor="middle" class="network">Hailfinder</text>
<text x="1177.5" y="84" text-anchor="middle" class="network">Hepar II</text>
<text x="1342.5" y="84" text-anchor="middle" class="network">Win95pts</text>
<text x="1507.5" y="84" text-anchor="middle" class="network">Andes</text>
<text x="252" y="149" text-anchor="end" class="label">HSM-10</text>
<rect x="270" y="105" width="165" height="68" fill="#f4e2a8" stroke="#ffffff" stroke-width="1"/>
<text x="352.5" y="149" text-anchor="middle" class="value" fill="#111111">1.36x</text>
<rect x="435" y="105" width="165" height="68" fill="#eee7b8" stroke="#ffffff" stroke-width="1"/>
<text x="517.5" y="149" text-anchor="middle" class="value" fill="#111111">1.78x</text>
<rect x="600" y="105" width="165" height="68" fill="#f0e5b2" stroke="#ffffff" stroke-width="1"/>
<text x="682.5" y="149" text-anchor="middle" class="value" fill="#111111">1.62x</text>
<rect x="765" y="105" width="165" height="68" fill="#f1e4af" stroke="#ffffff" stroke-width="1"/>
<text x="847.5" y="149" text-anchor="middle" class="value" fill="#111111">1.54x</text>
<rect x="930" y="105" width="165" height="68" fill="#d2fdfe" stroke="#ffffff" stroke-width="1"/>
<text x="1012.5" y="149" text-anchor="middle" class="value" fill="#111111">3.56x</text>
<rect x="1095" y="105" width="165" height="68" fill="#ebe9bf" stroke="#ffffff" stroke-width="1"/>
<text x="1177.5" y="149" text-anchor="middle" class="value" fill="#111111">1.96x</text>
<rect x="1260" y="105" width="165" height="68" fill="#fbdc97" stroke="#ffffff" stroke-width="1"/>
<text x="1342.5" y="149" text-anchor="middle" class="value" fill="#111111">0.92x</text>
<rect x="1425" y="105" width="165" height="68" fill="#eaeac1" stroke="#ffffff" stroke-width="1"/>
<text x="1507.5" y="149" text-anchor="middle" class="value" fill="#111111">2.02x</text>
<text x="252" y="217" text-anchor="end" class="label">HSM-20</text>
<rect x="270" y="173" width="165" height="68" fill="#f8df9e" stroke="#ffffff" stroke-width="1"/>
<text x="352.5" y="217" text-anchor="middle" class="value" fill="#111111">1.10x</text>
<rect x="435" y="173" width="165" height="68" fill="#f2e3ac" stroke="#ffffff" stroke-width="1"/>
<text x="517.5" y="217" text-anchor="middle" class="value" fill="#111111">1.48x</text>
<rect x="600" y="173" width="165" height="68" fill="#f4e2a9" stroke="#ffffff" stroke-width="1"/>
<text x="682.5" y="217" text-anchor="middle" class="value" fill="#111111">1.40x</text>
<rect x="765" y="173" width="165" height="68" fill="#f6e1a4" stroke="#ffffff" stroke-width="1"/>
<text x="847.5" y="217" text-anchor="middle" class="value" fill="#111111">1.27x</text>
<rect x="930" y="173" width="165" height="68" fill="#e6edcb" stroke="#ffffff" stroke-width="1"/>
<text x="1012.5" y="217" text-anchor="middle" class="value" fill="#111111">2.26x</text>
<rect x="1095" y="173" width="165" height="68" fill="#f3e3ab" stroke="#ffffff" stroke-width="1"/>
<text x="1177.5" y="217" text-anchor="middle" class="value" fill="#111111">1.44x</text>
<rect x="1260" y="173" width="165" height="68" fill="#fddb92" stroke="#ffffff" stroke-width="1"/>
<text x="1342.5" y="217" text-anchor="middle" class="value" fill="#111111">0.75x</text>
<rect x="1425" y="173" width="165" height="68" fill="#f6e0a3" stroke="#ffffff" stroke-width="1"/>
<text x="1507.5" y="217" text-anchor="middle" class="value" fill="#111111">1.24x</text>
<text x="252" y="285" text-anchor="end" class="label">HSM-50</text>
<rect x="270" y="241" width="165" height="68" fill="#f9de9b" stroke="#ffffff" stroke-width="1"/>
<text x="352.5" y="285" text-anchor="middle" class="value" fill="#111111">1.03x</text>
<rect x="435" y="241" width="165" height="68" fill="#fade9a" stroke="#ffffff" stroke-width="1"/>
<text x="517.5" y="285" text-anchor="middle" class="value" fill="#111111">1.01x</text>
<rect x="600" y="241" width="165" height="68" fill="#f8df9e" stroke="#ffffff" stroke-width="1"/>
<text x="682.5" y="285" text-anchor="middle" class="value" fill="#111111">1.11x</text>
<rect x="765" y="241" width="165" height="68" fill="#fbdd97" stroke="#ffffff" stroke-width="1"/>
<text x="847.5" y="285" text-anchor="middle" class="value" fill="#111111">0.94x</text>
<rect x="930" y="241" width="165" height="68" fill="#f2e3ac" stroke="#ffffff" stroke-width="1"/>
<text x="1012.5" y="285" text-anchor="middle" class="value" fill="#111111">1.47x</text>
<rect x="1095" y="241" width="165" height="68" fill="#f6e0a2" stroke="#ffffff" stroke-width="1"/>
<text x="1177.5" y="285" text-anchor="middle" class="value" fill="#111111">1.21x</text>
<rect x="1260" y="241" width="165" height="68" fill="#fddb92" stroke="#ffffff" stroke-width="1"/>
<text x="1342.5" y="285" text-anchor="middle" class="value" fill="#111111">0.54x</text>
<rect x="1425" y="241" width="165" height="68" fill="#fddb92" stroke="#ffffff" stroke-width="1"/>
<text x="1507.5" y="285" text-anchor="middle" class="value" fill="#111111">0.59x</text>
<text x="252" y="353" text-anchor="end" class="label">HSM-100</text>
<rect x="270" y="309" width="165" height="68" fill="#fade9a" stroke="#ffffff" stroke-width="1"/>
<text x="352.5" y="353" text-anchor="middle" class="value" fill="#111111">1.02x</text>
<rect x="435" y="309" width="165" height="68" fill="#fbdc96" stroke="#ffffff" stroke-width="1"/>
<text x="517.5" y="353" text-anchor="middle" class="value" fill="#111111">0.91x</text>
<rect x="600" y="309" width="165" height="68" fill="#f6e1a4" stroke="#ffffff" stroke-width="1"/>
<text x="682.5" y="353" text-anchor="middle" class="value" fill="#111111">1.26x</text>
<rect x="765" y="309" width="165" height="68" fill="#fddb92" stroke="#ffffff" stroke-width="1"/>
<text x="847.5" y="353" text-anchor="middle" class="value" fill="#111111">0.76x</text>
<rect x="930" y="309" width="165" height="68" fill="#f8df9e" stroke="#ffffff" stroke-width="1"/>
<text x="1012.5" y="353" text-anchor="middle" class="value" fill="#111111">1.11x</text>
<rect x="1095" y="309" width="165" height="68" fill="#fade9b" stroke="#ffffff" stroke-width="1"/>
<text x="1177.5" y="353" text-anchor="middle" class="value" fill="#111111">1.02x</text>
<rect x="1260" y="309" width="165" height="68" fill="#fddb92" stroke="#ffffff" stroke-width="1"/>
<text x="1342.5" y="353" text-anchor="middle" class="value" fill="#111111">0.47x</text>
<rect x="1425" y="309" width="165" height="68" fill="#fddb92" stroke="#ffffff" stroke-width="1"/>
<text x="1507.5" y="353" text-anchor="middle" class="value" fill="#111111">0.67x</text>
<text x="252" y="421" text-anchor="end" class="label">HSM-200</text>
<rect x="270" y="377" width="165" height="68" fill="#f9de9b" stroke="#ffffff" stroke-width="1"/>
<text x="352.5" y="421" text-anchor="middle" class="value" fill="#111111">1.03x</text>
<rect x="435" y="377" width="165" height="68" fill="#f8df9e" stroke="#ffffff" stroke-width="1"/>
<text x="517.5" y="421" text-anchor="middle" class="value" fill="#111111">1.11x</text>
<rect x="600" y="377" width="165" height="68" fill="#f8df9e" stroke="#ffffff" stroke-width="1"/>
<text x="682.5" y="421" text-anchor="middle" class="value" fill="#111111">1.11x</text>
<rect x="765" y="377" width="165" height="68" fill="#fddb92" stroke="#ffffff" stroke-width="1"/>
<text x="847.5" y="421" text-anchor="middle" class="value" fill="#111111">0.67x</text>
<rect x="930" y="377" width="165" height="68" fill="#f9de9d" stroke="#ffffff" stroke-width="1"/>
<text x="1012.5" y="421" text-anchor="middle" class="value" fill="#111111">1.09x</text>
<rect x="1095" y="377" width="165" height="68" fill="#fbdd98" stroke="#ffffff" stroke-width="1"/>
<text x="1177.5" y="421" text-anchor="middle" class="value" fill="#111111">0.95x</text>
<rect x="1260" y="377" width="165" height="68" fill="#fddb92" stroke="#ffffff" stroke-width="1"/>
<text x="1342.5" y="421" text-anchor="middle" class="value" fill="#111111">0.36x</text>
<rect x="1425" y="377" width="165" height="68" fill="#fddb92" stroke="#ffffff" stroke-width="1"/>
<text x="1507.5" y="421" text-anchor="middle" class="value" fill="#111111">0.61x</text>
<text x="252" y="489" text-anchor="end" class="label">HSM-1n</text>
<rect x="270" y="445" width="165" height="68" fill="#f4e2a9" stroke="#ffffff" stroke-width="1"/>
<text x="352.5" y="489" text-anchor="middle" class="value" fill="#111111">1.38x</text>
<rect x="435" y="445" width="165" height="68" fill="#fcdc96" stroke="#ffffff" stroke-width="1"/>
<text x="517.5" y="489" text-anchor="middle" class="value" fill="#111111">0.89x</text>
<rect x="600" y="445" width="165" height="68" fill="#f6e0a2" stroke="#ffffff" stroke-width="1"/>
<text x="682.5" y="489" text-anchor="middle" class="value" fill="#111111">1.22x</text>
<rect x="765" y="445" width="165" height="68" fill="#f9de9b" stroke="#ffffff" stroke-width="1"/>
<text x="847.5" y="489" text-anchor="middle" class="value" fill="#111111">1.04x</text>
<rect x="930" y="445" width="165" height="68" fill="#f4e2a8" stroke="#ffffff" stroke-width="1"/>
<text x="1012.5" y="489" text-anchor="middle" class="value" fill="#111111">1.36x</text>
<rect x="1095" y="445" width="165" height="68" fill="#f7dfa0" stroke="#ffffff" stroke-width="1"/>
<text x="1177.5" y="489" text-anchor="middle" class="value" fill="#111111">1.16x</text>
<rect x="1260" y="445" width="165" height="68" fill="#fddb92" stroke="#ffffff" stroke-width="1"/>
<text x="1342.5" y="489" text-anchor="middle" class="value" fill="#111111">0.38x</text>
<rect x="1425" y="445" width="165" height="68" fill="#fddb92" stroke="#ffffff" stroke-width="1"/>
<text x="1507.5" y="489" text-anchor="middle" class="value" fill="#111111">0.65x</text>
<text x="252" y="557" text-anchor="end" class="label">HSM-2n</text>
<rect x="270" y="513" width="165" height="68" fill="#f8df9f" stroke="#ffffff" stroke-width="1"/>
<text x="352.5" y="557" text-anchor="middle" class="value" fill="#111111">1.12x</text>
<rect x="435" y="513" width="165" height="68" fill="#fadd99" stroke="#ffffff" stroke-width="1"/>
<text x="517.5" y="557" text-anchor="middle" class="value" fill="#111111">0.97x</text>
<rect x="600" y="513" width="165" height="68" fill="#f8df9f" stroke="#ffffff" stroke-width="1"/>
<text x="682.5" y="557" text-anchor="middle" class="value" fill="#111111">1.13x</text>
<rect x="765" y="513" width="165" height="68" fill="#fddb93" stroke="#ffffff" stroke-width="1"/>
<text x="847.5" y="557" text-anchor="middle" class="value" fill="#111111">0.82x</text>
<rect x="930" y="513" width="165" height="68" fill="#f8df9f" stroke="#ffffff" stroke-width="1"/>
<text x="1012.5" y="557" text-anchor="middle" class="value" fill="#111111">1.13x</text>
<rect x="1095" y="513" width="165" height="68" fill="#fade9a" stroke="#ffffff" stroke-width="1"/>
<text x="1177.5" y="557" text-anchor="middle" class="value" fill="#111111">1.02x</text>
<rect x="1260" y="513" width="165" height="68" fill="#fddb92" stroke="#ffffff" stroke-width="1"/>
<text x="1342.5" y="557" text-anchor="middle" class="value" fill="#111111">0.55x</text>
<rect x="1425" y="513" width="165" height="68" fill="#fddb92" stroke="#ffffff" stroke-width="1"/>
<text x="1507.5" y="557" text-anchor="middle" class="value" fill="#111111">0.68x</text>
<text x="252" y="625" text-anchor="end" class="label">HSM-5n</text>
<rect x="270" y="581" width="165" height="68" fill="#fade9b" stroke="#ffffff" stroke-width="1"/>
<text x="352.5" y="625" text-anchor="middle" class="value" fill="#111111">1.02x</text>
<rect x="435" y="581" width="165" height="68" fill="#fcdb94" stroke="#ffffff" stroke-width="1"/>
<text x="517.5" y="625" text-anchor="middle" class="value" fill="#111111">0.84x</text>
<rect x="600" y="581" width="165" height="68" fill="#fadd98" stroke="#ffffff" stroke-width="1"/>
<text x="682.5" y="625" text-anchor="middle" class="value" fill="#111111">0.96x</text>
<rect x="765" y="581" width="165" height="68" fill="#fddb92" stroke="#ffffff" stroke-width="1"/>
<text x="847.5" y="625" text-anchor="middle" class="value" fill="#111111">0.66x</text>
<rect x="930" y="581" width="165" height="68" fill="#f8df9e" stroke="#ffffff" stroke-width="1"/>
<text x="1012.5" y="625" text-anchor="middle" class="value" fill="#111111">1.10x</text>
<rect x="1095" y="581" width="165" height="68" fill="#f9de9c" stroke="#ffffff" stroke-width="1"/>
<text x="1177.5" y="625" text-anchor="middle" class="value" fill="#111111">1.06x</text>
<rect x="1260" y="581" width="165" height="68" fill="#fddb92" stroke="#ffffff" stroke-width="1"/>
<text x="1342.5" y="625" text-anchor="middle" class="value" fill="#111111">0.62x</text>
<rect x="1425" y="581" width="165" height="68" fill="#fbdd97" stroke="#ffffff" stroke-width="1"/>
<text x="1507.5" y="625" text-anchor="middle" class="value" fill="#111111">0.93x</text>
<text x="252" y="693" text-anchor="end" class="label">HSM-10n</text>
<rect x="270" y="649" width="165" height="68" fill="#fade9a" stroke="#ffffff" stroke-width="1"/>
<text x="352.5" y="693" text-anchor="middle" class="value" fill="#111111">1.02x</text>
<rect x="435" y="649" width="165" height="68" fill="#f9de9d" stroke="#ffffff" stroke-width="1"/>
<text x="517.5" y="693" text-anchor="middle" class="value" fill="#111111">1.08x</text>
<rect x="600" y="649" width="165" height="68" fill="#f7dfa0" stroke="#ffffff" stroke-width="1"/>
<text x="682.5" y="693" text-anchor="middle" class="value" fill="#111111">1.15x</text>
<rect x="765" y="649" width="165" height="68" fill="#fddb92" stroke="#ffffff" stroke-width="1"/>
<text x="847.5" y="693" text-anchor="middle" class="value" fill="#111111">0.65x</text>
<rect x="930" y="649" width="165" height="68" fill="#f6e0a4" stroke="#ffffff" stroke-width="1"/>
<text x="1012.5" y="693" text-anchor="middle" class="value" fill="#111111">1.25x</text>
<rect x="1095" y="649" width="165" height="68" fill="#fadd99" stroke="#ffffff" stroke-width="1"/>
<text x="1177.5" y="693" text-anchor="middle" class="value" fill="#111111">0.99x</text>
<rect x="1260" y="649" width="165" height="68" fill="#fddb92" stroke="#ffffff" stroke-width="1"/>
<text x="1342.5" y="693" text-anchor="middle" class="value" fill="#111111">0.69x</text>
<rect x="1425" y="649" width="165" height="68" fill="#f9de9c" stroke="#ffffff" stroke-width="1"/>
<text x="1507.5" y="693" text-anchor="middle" class="value" fill="#111111">1.05x</text>
<text x="252" y="761" text-anchor="end" class="label">HSM-50n</text>
<rect x="270" y="717" width="165" height="68" fill="#fade9b" stroke="#ffffff" stroke-width="1"/>
<text x="352.5" y="761" text-anchor="middle" class="value" fill="#111111">1.02x</text>
<rect x="435" y="717" width="165" height="68" fill="#f9de9d" stroke="#ffffff" stroke-width="1"/>
<text x="517.5" y="761" text-anchor="middle" class="value" fill="#111111">1.07x</text>
<rect x="600" y="717" width="165" height="68" fill="#fadd9a" stroke="#ffffff" stroke-width="1"/>
<text x="682.5" y="761" text-anchor="middle" class="value" fill="#111111">1.00x</text>
<rect x="765" y="717" width="165" height="68" fill="#f8df9e" stroke="#ffffff" stroke-width="1"/>
<text x="847.5" y="761" text-anchor="middle" class="value" fill="#111111">1.11x</text>
<rect x="930" y="717" width="165" height="68" fill="#fade9b" stroke="#ffffff" stroke-width="1"/>
<text x="1012.5" y="761" text-anchor="middle" class="value" fill="#111111">1.02x</text>
<rect x="1095" y="717" width="165" height="68" fill="#fadd9a" stroke="#ffffff" stroke-width="1"/>
<text x="1177.5" y="761" text-anchor="middle" class="value" fill="#111111">1.00x</text>
<rect x="1260" y="717" width="165" height="68" fill="#fbdc96" stroke="#ffffff" stroke-width="1"/>
<text x="1342.5" y="761" text-anchor="middle" class="value" fill="#111111">0.90x</text>
<rect x="1425" y="717" width="165" height="68" fill="#fadd9a" stroke="#ffffff" stroke-width="1"/>
<text x="1507.5" y="761" text-anchor="middle" class="value" fill="#111111">1.00x</text>
<text x="252" y="829" text-anchor="end" class="label">HSM-100n</text>
<rect x="270" y="785" width="165" height="68" fill="#fade9b" stroke="#ffffff" stroke-width="1"/>
<text x="352.5" y="829" text-anchor="middle" class="value" fill="#111111">1.02x</text>
<rect x="435" y="785" width="165" height="68" fill="#fadd9a" stroke="#ffffff" stroke-width="1"/>
<text x="517.5" y="829" text-anchor="middle" class="value" fill="#111111">1.01x</text>
<rect x="600" y="785" width="165" height="68" fill="#fadd9a" stroke="#ffffff" stroke-width="1"/>
<text x="682.5" y="829" text-anchor="middle" class="value" fill="#111111">1.00x</text>
<rect x="765" y="785" width="165" height="68" fill="#f8df9f" stroke="#ffffff" stroke-width="1"/>
<text x="847.5" y="829" text-anchor="middle" class="value" fill="#111111">1.13x</text>
<rect x="930" y="785" width="165" height="68" fill="#fadd9a" stroke="#ffffff" stroke-width="1"/>
<text x="1012.5" y="829" text-anchor="middle" class="value" fill="#111111">1.00x</text>
<rect x="1095" y="785" width="165" height="68" fill="#fadd9a" stroke="#ffffff" stroke-width="1"/>
<text x="1177.5" y="829" text-anchor="middle" class="value" fill="#111111">1.00x</text>
<rect x="1260" y="785" width="165" height="68" fill="#fadd99" stroke="#ffffff" stroke-width="1"/>
<text x="1342.5" y="829" text-anchor="middle" class="value" fill="#111111">0.98x</text>
<rect x="1425" y="785" width="165" height="68" fill="#fadd9a" stroke="#ffffff" stroke-width="1"/>
<text x="1507.5" y="829" text-anchor="middle" class="value" fill="#111111">1.00x</text>
<text x="252" y="897" text-anchor="end" class="label">HSM-200n</text>
<rect x="270" y="853" width="165" height="68" fill="#fade9a" stroke="#ffffff" stroke-width="1"/>
<text x="352.5" y="897" text-anchor="middle" class="value" fill="#111111">1.01x</text>
<rect x="435" y="853" width="165" height="68" fill="#fadd9a" stroke="#ffffff" stroke-width="1"/>
<text x="517.5" y="897" text-anchor="middle" class="value" fill="#111111">1.00x</text>
<rect x="600" y="853" width="165" height="68" fill="#fade9a" stroke="#ffffff" stroke-width="1"/>
<text x="682.5" y="897" text-anchor="middle" class="value" fill="#111111">1.01x</text>
<rect x="765" y="853" width="165" height="68" fill="#fadd9a" stroke="#ffffff" stroke-width="1"/>
<text x="847.5" y="897" text-anchor="middle" class="value" fill="#111111">1.00x</text>
<rect x="930" y="853" width="165" height="68" fill="#fadd9a" stroke="#ffffff" stroke-width="1"/>
<text x="1012.5" y="897" text-anchor="middle" class="value" fill="#111111">0.99x</text>
<rect x="1095" y="853" width="165" height="68" fill="#fadd9a" stroke="#ffffff" stroke-width="1"/>
<text x="1177.5" y="897" text-anchor="middle" class="value" fill="#111111">1.00x</text>
<rect x="1260" y="853" width="165" height="68" fill="#fbdd98" stroke="#ffffff" stroke-width="1"/>
<text x="1342.5" y="897" text-anchor="middle" class="value" fill="#111111">0.95x</text>
<rect x="1425" y="853" width="165" height="68" fill="#fadd9a" stroke="#ffffff" stroke-width="1"/>
<text x="1507.5" y="897" text-anchor="middle" class="value" fill="#111111">1.00x</text>
<rect x="1600" y="135.0" width="60" height="7.3" fill="#d1fdff"/>
<rect x="1600" y="141.3" width="60" height="7.3" fill="#d1fdfe"/>
<rect x="1600" y="147.6" width="60" height="7.3" fill="#d2fcfd"/>
<rect x="1600" y="153.9" width="60" height="7.3" fill="#d2fcfc"/>
<rect x="1600" y="160.2" width="60" height="7.3" fill="#d2fcfb"/>
<rect x="1600" y="166.5" width="60" height="7.3" fill="#d3fcfa"/>
<rect x="1600" y="172.8" width="60" height="7.3" fill="#d3fbfa"/>
<rect x="1600" y="179.1" width="60" height="7.3" fill="#d4fbf9"/>
<rect x="1600" y="185.4" width="60" height="7.3" fill="#d4fbf8"/>
<rect x="1600" y="191.7" width="60" height="7.3" fill="#d4faf7"/>
<rect x="1600" y="198.0" width="60" height="7.3" fill="#d5faf6"/>
<rect x="1600" y="204.3" width="60" height="7.3" fill="#d5faf5"/>
<rect x="1600" y="210.6" width="60" height="7.3" fill="#d5faf4"/>
<rect x="1600" y="216.9" width="60" height="7.3" fill="#d6f9f3"/>
<rect x="1600" y="223.2" width="60" height="7.3" fill="#d6f9f2"/>
<rect x="1600" y="229.5" width="60" height="7.3" fill="#d7f9f1"/>
<rect x="1600" y="235.8" width="60" height="7.3" fill="#d7f8f0"/>
<rect x="1600" y="242.1" width="60" height="7.3" fill="#d7f8ef"/>
<rect x="1600" y="248.4" width="60" height="7.3" fill="#d8f8ef"/>
<rect x="1600" y="254.7" width="60" height="7.3" fill="#d8f8ee"/>
<rect x="1600" y="261.0" width="60" height="7.3" fill="#d8f7ed"/>
<rect x="1600" y="267.3" width="60" height="7.3" fill="#d9f7ec"/>
<rect x="1600" y="273.6" width="60" height="7.3" fill="#d9f7eb"/>
<rect x="1600" y="279.9" width="60" height="7.3" fill="#daf6ea"/>
<rect x="1600" y="286.2" width="60" height="7.3" fill="#daf6e9"/>
<rect x="1600" y="292.5" width="60" height="7.3" fill="#daf6e8"/>
<rect x="1600" y="298.8" width="60" height="7.3" fill="#dbf6e7"/>
<rect x="1600" y="305.1" width="60" height="7.3" fill="#dbf5e6"/>
<rect x="1600" y="311.4" width="60" height="7.3" fill="#dbf5e5"/>
<rect x="1600" y="317.7" width="60" height="7.3" fill="#dcf5e4"/>
<rect x="1600" y="324.0" width="60" height="7.3" fill="#dcf4e4"/>
<rect x="1600" y="330.3" width="60" height="7.3" fill="#dcf4e3"/>
<rect x="1600" y="336.6" width="60" height="7.3" fill="#ddf4e2"/>
<rect x="1600" y="342.9" width="60" height="7.3" fill="#ddf4e1"/>
<rect x="1600" y="349.2" width="60" height="7.3" fill="#def3e0"/>
<rect x="1600" y="355.5" width="60" height="7.3" fill="#def3df"/>
<rect x="1600" y="361.8" width="60" height="7.3" fill="#def3de"/>
<rect x="1600" y="368.1" width="60" height="7.3" fill="#dff2dd"/>
<rect x="1600" y="374.4" width="60" height="7.3" fill="#dff2dc"/>
<rect x="1600" y="380.7" width="60" height="7.3" fill="#dff2db"/>
<rect x="1600" y="387.0" width="60" height="7.3" fill="#e0f2da"/>
<rect x="1600" y="393.3" width="60" height="7.3" fill="#e0f1d9"/>
<rect x="1600" y="399.6" width="60" height="7.3" fill="#e1f1d9"/>
<rect x="1600" y="405.9" width="60" height="7.3" fill="#e1f1d8"/>
<rect x="1600" y="412.2" width="60" height="7.3" fill="#e1f0d7"/>
<rect x="1600" y="418.5" width="60" height="7.3" fill="#e2f0d6"/>
<rect x="1600" y="424.8" width="60" height="7.3" fill="#e2f0d5"/>
<rect x="1600" y="431.1" width="60" height="7.3" fill="#e2f0d4"/>
<rect x="1600" y="437.4" width="60" height="7.3" fill="#e3efd3"/>
<rect x="1600" y="443.7" width="60" height="7.3" fill="#e3efd2"/>
<rect x="1600" y="450.0" width="60" height="7.3" fill="#e3efd1"/>
<rect x="1600" y="456.3" width="60" height="7.3" fill="#e4eed0"/>
<rect x="1600" y="462.6" width="60" height="7.3" fill="#e4eecf"/>
<rect x="1600" y="468.9" width="60" height="7.3" fill="#e5eece"/>
<rect x="1600" y="475.2" width="60" height="7.3" fill="#e5eece"/>
<rect x="1600" y="481.5" width="60" height="7.3" fill="#e5edcd"/>
<rect x="1600" y="487.8" width="60" height="7.3" fill="#e6edcc"/>
<rect x="1600" y="494.1" width="60" height="7.3" fill="#e6edcb"/>
<rect x="1600" y="500.4" width="60" height="7.3" fill="#e6ecca"/>
<rect x="1600" y="506.7" width="60" height="7.3" fill="#e7ecc9"/>
<rect x="1600" y="513.0" width="60" height="7.3" fill="#e7ecc8"/>
<rect x="1600" y="519.3" width="60" height="7.3" fill="#e8ecc7"/>
<rect x="1600" y="525.6" width="60" height="7.3" fill="#e8ebc6"/>
<rect x="1600" y="531.9" width="60" height="7.3" fill="#e8ebc5"/>
<rect x="1600" y="538.2" width="60" height="7.3" fill="#e9ebc4"/>
<rect x="1600" y="544.5" width="60" height="7.3" fill="#e9eac3"/>
<rect x="1600" y="550.8" width="60" height="7.3" fill="#e9eac3"/>
<rect x="1600" y="557.1" width="60" height="7.3" fill="#eaeac2"/>
<rect x="1600" y="563.4" width="60" height="7.3" fill="#eaeac1"/>
<rect x="1600" y="569.7" width="60" height="7.3" fill="#ebe9c0"/>
<rect x="1600" y="576.0" width="60" height="7.3" fill="#ebe9bf"/>
<rect x="1600" y="582.3" width="60" height="7.3" fill="#ebe9be"/>
<rect x="1600" y="588.6" width="60" height="7.3" fill="#ece8bd"/>
<rect x="1600" y="594.9" width="60" height="7.3" fill="#ece8bc"/>
<rect x="1600" y="601.2" width="60" height="7.3" fill="#ece8bb"/>
<rect x="1600" y="607.5" width="60" height="7.3" fill="#ede8ba"/>
<rect x="1600" y="613.8" width="60" height="7.3" fill="#ede7b9"/>
<rect x="1600" y="620.1" width="60" height="7.3" fill="#ede7b8"/>
<rect x="1600" y="626.4" width="60" height="7.3" fill="#eee7b8"/>
<rect x="1600" y="632.7" width="60" height="7.3" fill="#eee6b7"/>
<rect x="1600" y="639.0" width="60" height="7.3" fill="#efe6b6"/>
<rect x="1600" y="645.3" width="60" height="7.3" fill="#efe6b5"/>
<rect x="1600" y="651.6" width="60" height="7.3" fill="#efe6b4"/>
<rect x="1600" y="657.9" width="60" height="7.3" fill="#f0e5b3"/>
<rect x="1600" y="664.2" width="60" height="7.3" fill="#f0e5b2"/>
<rect x="1600" y="670.5" width="60" height="7.3" fill="#f0e5b1"/>
<rect x="1600" y="676.8" width="60" height="7.3" fill="#f1e4b0"/>
<rect x="1600" y="683.1" width="60" height="7.3" fill="#f1e4af"/>
<rect x="1600" y="689.4" width="60" height="7.3" fill="#f2e4ae"/>
<rect x="1600" y="695.7" width="60" height="7.3" fill="#f2e4ad"/>
<rect x="1600" y="702.0" width="60" height="7.3" fill="#f2e3ad"/>
<rect x="1600" y="708.3" width="60" height="7.3" fill="#f3e3ac"/>
<rect x="1600" y="714.6" width="60" height="7.3" fill="#f3e3ab"/>
<rect x="1600" y="720.9" width="60" height="7.3" fill="#f3e2aa"/>
<rect x="1600" y="727.2" width="60" height="7.3" fill="#f4e2a9"/>
<rect x="1600" y="733.5" width="60" height="7.3" fill="#f4e2a8"/>
<rect x="1600" y="739.8" width="60" height="7.3" fill="#f4e2a7"/>
<rect x="1600" y="746.1" width="60" height="7.3" fill="#f5e1a6"/>
<rect x="1600" y="752.4" width="60" height="7.3" fill="#f5e1a5"/>
<rect x="1600" y="758.7" width="60" height="7.3" fill="#f6e1a4"/>
<rect x="1600" y="765.0" width="60" height="7.3" fill="#f6e0a3"/>
<rect x="1600" y="771.3" width="60" height="7.3" fill="#f6e0a2"/>
<rect x="1600" y="777.6" width="60" height="7.3" fill="#f7e0a2"/>
<rect x="1600" y="783.9" width="60" height="7.3" fill="#f7e0a1"/>
<rect x="1600" y="790.2" width="60" height="7.3" fill="#f7dfa0"/>
<rect x="1600" y="796.5" width="60" height="7.3" fill="#f8df9f"/>
<rect x="1600" y="802.8" width="60" height="7.3" fill="#f8df9e"/>
<rect x="1600" y="809.1" width="60" height="7.3" fill="#f9de9d"/>
<rect x="1600" y="815.4" width="60" height="7.3" fill="#f9de9c"/>
<rect x="1600" y="821.7" width="60" height="7.3" fill="#f9de9b"/>
<rect x="1600" y="828.0" width="60" height="7.3" fill="#fade9a"/>
<rect x="1600" y="834.3" width="60" height="7.3" fill="#fadd99"/>
<rect x="1600" y="840.6" width="60" height="7.3" fill="#fadd98"/>
<rect x="1600" y="846.9" width="60" height="7.3" fill="#fbdd97"/>
<rect x="1600" y="853.2" width="60" height="7.3" fill="#fbdc97"/>
<rect x="1600" y="859.5" width="60" height="7.3" fill="#fcdc96"/>
<rect x="1600" y="865.8" width="60" height="7.3" fill="#fcdc95"/>
<rect x="1600" y="872.1" width="60" height="7.3" fill="#fcdc94"/>
<rect x="1600" y="878.4" width="60" height="7.3" fill="#fddb93"/>
<rect x="1600" y="884.7" width="60" height="7.3" fill="#fddb92"/>
<rect x="1600" y="135" width="60" height="756" fill="none" stroke="#333333"/>
<text x="1630.0" y="123" text-anchor="middle" class="tick">3.60</text>
<text x="1630.0" y="923" text-anchor="middle" class="tick">0.80</text>
<text x="1620.0" y="513.0" text-anchor="middle" transform="rotate(-90 1620.0 513.0)" class="axis">Runtime ratio</text>
</svg>